<svg width="48" height="48" viewBox="0 0 48 48" fill="none" xmlns="http://www.w3.org/2000/svg">
<path d="M24 0C10.7621 0 0 10.7621 0 24C0 37.2379 10.7621 48 24 48C37.2379 48 48 37.2379 48 24C48 10.7621 37.2379 0 24 0ZM24 45.7263C12.0253 45.7263 2.27368 35.9747 2.27368 24C2.27368 12.0253 12.0253 2.27368 24 2.27368C35.9747 2.27368 45.7263 11.9747 45.7263 24C45.7263 35.9747 35.9747 45.7263 24 45.7263Z" fill="#F17900"/>
<path d="M27.4358 23.4441C27.7389 24.5557 31.0737 24.7578 33.0442 24.7578C34.6105 24.7578 38.501 24.6062 40.6737 23.2925C41.9368 22.4841 42.4421 21.1199 42.0379 19.503C41.1284 15.9662 39.36 15.4609 38.3495 15.4609C37.7937 15.4609 37.3895 15.663 37.3389 15.663C35.6716 16.3199 33.0442 18.0378 31.2758 19.3515C27.1326 22.383 27.3347 23.0904 27.4358 23.4441Z" fill="#F17900"/>
<path d="M40.6232 26.9304C38.8042 25.8188 35.52 25.7178 34.1558 25.7178C33.4484 25.7178 29.8105 25.7683 29.5579 26.6778C29.2042 27.9409 36.0758 32.4378 37.9453 33.1957C37.9958 33.1957 38.2989 33.3472 38.7537 33.3472C39.5621 33.3472 40.9768 32.8925 41.6842 30.0125C42.0379 28.6483 41.6337 27.5367 40.6232 26.9304Z" fill="#F17900"/>
<path d="M20.4632 24.7073C20.16 23.5957 16.1684 23.4946 14.9558 23.4946C13.3895 23.4946 9.44842 23.6462 7.32631 24.9599C6.11368 25.7178 5.60842 27.0315 6.01263 28.6483C6.87158 32.1346 8.64 32.6399 9.54947 32.6399C10.1053 32.6399 10.4589 32.4883 10.5095 32.4883C12.9347 31.5283 20.8674 26.2736 20.4632 24.7073Z" fill="#F17900"/>
<path d="M7.02316 21.5243C8.8421 22.6358 12.1263 22.7369 13.4905 22.7369C14.1979 22.7369 17.8358 22.6864 18.0884 21.7769C18.4421 20.5137 11.5705 16.0169 9.70105 15.259C9.65053 15.259 9.34737 15.1074 8.89263 15.1074C8.08421 15.1074 6.66947 15.5622 5.9621 18.4422C5.60842 19.8064 6.01263 20.9179 7.02316 21.5243Z" fill="#F17900"/>
<path d="M25.4653 21.2715C25.5663 21.322 25.6674 21.322 25.8189 21.322C27.5368 21.322 35.621 15.2083 36.1768 12.581C36.2779 12.2778 36.7326 9.75151 32.3874 7.67993C30.7705 6.92203 29.4063 6.51782 28.2442 6.51782C26.5263 6.51782 25.8695 7.4273 25.7179 7.6294C24.2526 9.49888 24.2021 17.3305 24.8084 20.0589C24.96 20.7662 25.1621 21.1199 25.4653 21.2715Z" fill="#F17900"/>
<path d="M22.4842 21.5747C22.6358 21.5747 22.7874 21.5242 22.8884 21.4736C23.1916 21.3221 23.3432 20.9179 23.4947 20.2105C23.9495 17.381 23.2926 9.44838 21.6758 7.62943C21.5242 7.42733 20.9179 6.66943 19.4021 6.66943C18.1895 6.66943 16.6737 7.1747 14.9558 8.1347C10.661 10.56 11.3179 13.0863 11.4695 13.3894C12.0758 15.9663 20.6147 21.5747 22.4842 21.5747Z" fill="#F17900"/>
<path d="M25.92 27.082C25.8189 27.082 25.6674 27.082 25.5663 27.1326C25.2632 27.2841 25.0611 27.6378 24.9095 28.2947C24.3032 30.9726 24.4042 38.501 25.8189 40.3705C25.9705 40.6231 26.5768 41.482 28.2442 41.482C29.3558 41.482 30.72 41.0778 32.2863 40.3705C36.5305 38.3494 36.0758 35.9241 35.9747 35.5705C35.4695 32.9936 27.5874 27.082 25.92 27.082Z" fill="#F17900"/>
<path d="M22.939 26.5263C22.8379 26.4758 22.6863 26.4253 22.5347 26.4253C20.6653 26.4253 12.3284 32.3369 11.7221 34.9642C11.6211 35.2674 11.0147 37.8442 15.4105 40.1179C17.1284 41.0274 18.5937 41.4316 19.7558 41.4316C21.3726 41.4316 22.0295 40.6232 22.1811 40.3706C23.7474 38.5011 24.1011 30.5685 23.5453 27.739C23.3937 27.0821 23.2421 26.6779 22.939 26.5263Z" fill="#F17900"/>
</svg>
